<svg width="105" height="60" viewBox="0 0 105 60" fill="none" xmlns="http://www.w3.org/2000/svg">
<g clip-path="url(#clip0_366_99045)">
<path d="M36.7886 7.5796V25.0788H37.6098C38.3501 25.0788 38.7576 24.5935 38.7576 23.7063V8.95209C38.7576 7.98454 38.5927 7.58269 37.6906 7.58269H36.7886V7.5796ZM36.7886 33.6291V60H26.25V0H42.5307C46.142 0 49.0131 2.25657 49.0131 7.17774V21.289C49.0131 25.4034 47.0441 27.0139 45.3208 27.7403C47.0441 28.4668 49.1779 30.1607 49.1779 33.3045V57.0943C49.1779 58.3029 49.2526 59.4343 49.5823 59.9969H39.4139C39.0033 59.4312 38.7576 58.6275 38.7576 57.4961V34.9985C38.7576 34.1113 38.5927 33.6291 37.6098 33.6291H36.7886Z" fill="#CBBFA2"/>
<path d="M52.5 0H70V9.27666H62.4165V23.7682H68.5412V33.3323H62.4165V50.7233H70V60H52.5V0Z" fill="#CBBFA2"/>
<path d="M13.0799 40.4019L11.7392 18.2226L10.691 40.4019H13.083H13.0799ZM14.6165 59.9969L13.73 49.3292H10.1871L9.30057 59.9969H0L5.82608 0H18.5763L23.9171 60H14.6165V59.9969Z" fill="#CBBFA2"/>
<path fill-rule="evenodd" clip-rule="evenodd" d="M89.9886 17.9444L89.1052 3.47759L88.4146 17.9444H89.9886ZM90.9995 30.7233L90.4147 23.7682H88.0818L87.497 30.7233H81.3723L84.3865 0H73.4995V60H77.873V55.1777H83.5933V60H84.6509V48.4297C84.6509 48 84.458 47.7589 84.1221 47.7589C83.7861 47.7589 83.5933 47.9969 83.5933 48.4297V52.6399H77.873V33.9134H90.225V39.0943H83.4968V45.1716C84.2185 44.3586 85.3227 43.1128 87.102 43.1128H87.3913C89.6495 43.1128 90.7569 44.9799 90.7569 46.9428V59.9969H94.6171V41.5332H92.0695V36.507C94.3278 36.507 95.289 35.5023 95.4352 33.9227L100.627 33.9104V59.9969H105.003V0H94.3682L97.1304 30.7233H91.0057H90.9995Z" fill="#CBBFA2"/>
</g>
<defs>
<clipPath id="clip0_366_99045">
<rect width="105" height="60" fill="white"/>
</clipPath>
</defs>
</svg>
