<svg width="21" height="21" viewBox="0 0 21 21" fill="none" xmlns="http://www.w3.org/2000/svg">
<path d="M16.7143 0.254184C18.8438 0.254184 20.5714 1.98186 20.5714 4.11133V16.9685C20.5714 19.0979 18.8438 20.8256 16.7143 20.8256H14.1964V12.8569H16.8616L17.2634 9.74972H14.1964V7.76758C14.1964 6.87026 14.4375 6.26758 15.7366 6.26758L17.3705 6.25418V3.48186C17.0893 3.44168 16.1116 3.36133 14.9866 3.36133C12.6161 3.36133 10.9821 4.80776 10.9821 7.45954V9.74972H8.30357V12.8569H10.9821V20.8256H3.85714C1.72768 20.8256 0 19.0979 0 16.9685V4.11133C0 1.98186 1.72768 0.254184 3.85714 0.254184H16.7143Z" fill="white"/>
</svg>
