<svg width="22" height="21" viewBox="0 0 22 21" fill="none" xmlns="http://www.w3.org/2000/svg">
<path d="M14.7143 10.5399C14.7143 8.65151 13.1741 7.11133 11.2857 7.11133C9.39732 7.11133 7.85714 8.65151 7.85714 10.5399C7.85714 12.4283 9.39732 13.9685 11.2857 13.9685C13.1741 13.9685 14.7143 12.4283 14.7143 10.5399ZM16.5625 10.5399C16.5625 13.4595 14.2054 15.8167 11.2857 15.8167C8.36607 15.8167 6.00893 13.4595 6.00893 10.5399C6.00893 7.62026 8.36607 5.26311 11.2857 5.26311C14.2054 5.26311 16.5625 7.62026 16.5625 10.5399ZM18.0089 5.04883C18.0089 5.73186 17.4598 6.28097 16.7768 6.28097C16.0938 6.28097 15.5446 5.73186 15.5446 5.04883C15.5446 4.36579 16.0938 3.81668 16.7768 3.81668C17.4598 3.81668 18.0089 4.36579 18.0089 5.04883ZM11.2857 2.1024C9.78571 2.1024 6.57143 1.98186 5.21875 2.51758C4.75 2.70508 4.40179 2.93276 4.04018 3.29436C3.67857 3.65597 3.45089 4.00418 3.26339 4.47293C2.72768 5.82561 2.84821 9.0399 2.84821 10.5399C2.84821 12.0399 2.72768 15.2542 3.26339 16.6069C3.45089 17.0756 3.67857 17.4238 4.04018 17.7854C4.40179 18.147 4.75 18.3747 5.21875 18.5622C6.57143 19.0979 9.78571 18.9774 11.2857 18.9774C12.7857 18.9774 16 19.0979 17.3527 18.5622C17.8214 18.3747 18.1696 18.147 18.5313 17.7854C18.8929 17.4238 19.1205 17.0756 19.308 16.6069C19.8438 15.2542 19.7232 12.0399 19.7232 10.5399C19.7232 9.0399 19.8438 5.82561 19.308 4.47293C19.1205 4.00418 18.8929 3.65597 18.5313 3.29436C18.1696 2.93276 17.8214 2.70508 17.3527 2.51758C16 1.98186 12.7857 2.1024 11.2857 2.1024ZM21.5714 10.5399C21.5714 11.9595 21.5848 13.3658 21.5045 14.7854C21.4241 16.4328 21.0491 17.8926 19.8438 19.0979C18.6384 20.3033 17.1786 20.6783 15.5312 20.7586C14.1116 20.839 12.7054 20.8256 11.2857 20.8256C9.86607 20.8256 8.45982 20.839 7.04018 20.7586C5.39286 20.6783 3.93304 20.3033 2.72768 19.0979C1.52232 17.8926 1.14732 16.4328 1.06696 14.7854C0.986607 13.3658 1 11.9595 1 10.5399C1 9.12026 0.986607 7.71401 1.06696 6.29436C1.14732 4.64704 1.52232 3.18722 2.72768 1.98186C3.93304 0.776505 5.39286 0.401505 7.04018 0.321149C8.45982 0.240792 9.86607 0.254184 11.2857 0.254184C12.7054 0.254184 14.1116 0.240792 15.5312 0.321149C17.1786 0.401505 18.6384 0.776505 19.8438 1.98186C21.0491 3.18722 21.4241 4.64704 21.5045 6.29436C21.5848 7.71401 21.5714 9.12026 21.5714 10.5399Z" fill="white"/>
</svg>
