<svg width="17" height="17" viewBox="0 0 17 17" fill="none" xmlns="http://www.w3.org/2000/svg">
<path fill-rule="evenodd" clip-rule="evenodd" d="M5.01504 0.959163C5.85321 0.920577 6.12045 0.912003 8.25551 0.912003C10.3906 0.912003 10.6578 0.921292 11.4953 0.959163C12.3327 0.997033 12.9043 1.13065 13.4045 1.3243C13.9283 1.52222 14.4035 1.83162 14.7965 2.23177C15.1966 2.62405 15.5053 3.09851 15.7025 3.62299C15.8969 4.12317 16.0298 4.69481 16.0683 5.53082C16.1069 6.37042 16.1155 6.63766 16.1155 8.772C16.1155 10.9071 16.1062 11.1743 16.0683 12.0125C16.0305 12.8485 15.8969 13.4201 15.7025 13.9203C15.5053 14.4448 15.1961 14.9201 14.7965 15.313C14.4035 15.7131 13.9283 16.0218 13.4045 16.219C12.9043 16.4134 12.3327 16.5463 11.4967 16.5848C10.6578 16.6234 10.3906 16.632 8.25551 16.632C6.12045 16.632 5.85321 16.6227 5.01504 16.5848C4.17903 16.547 3.60739 16.4134 3.10721 16.219C2.58267 16.0218 2.10743 15.7126 1.71456 15.313C1.31468 14.9204 1.00524 14.4454 0.807801 13.921C0.614159 13.4208 0.481253 12.8492 0.442668 12.0132C0.404082 11.1736 0.395508 10.9063 0.395508 8.772C0.395508 6.63694 0.404797 6.3697 0.442668 5.53225C0.480539 4.69481 0.614159 4.12317 0.807801 3.62299C1.00553 3.09857 1.31521 2.62356 1.71527 2.23105C2.10759 1.83127 2.58235 1.52183 3.10649 1.3243C3.60668 1.13065 4.17831 0.997748 5.01433 0.959163H5.01504ZM11.4317 2.37396C10.6028 2.33609 10.3541 2.32823 8.25551 2.32823C6.15689 2.32823 5.90823 2.33609 5.07935 2.37396C4.31265 2.40898 3.89678 2.53688 3.61954 2.64478C3.25298 2.78768 2.99074 2.95703 2.71564 3.23213C2.45486 3.48583 2.25417 3.79468 2.12828 4.13603C2.02038 4.41328 1.89248 4.82914 1.85747 5.59585C1.8196 6.42472 1.81174 6.67338 1.81174 8.772C1.81174 10.8706 1.8196 11.1193 1.85747 11.9482C1.89248 12.7149 2.02038 13.1307 2.12828 13.408C2.25404 13.7488 2.45483 14.0582 2.71564 14.3119C2.9693 14.5727 3.2787 14.7735 3.61954 14.8992C3.89678 15.0071 4.31265 15.135 5.07935 15.17C5.90823 15.2079 6.15617 15.2158 8.25551 15.2158C10.3548 15.2158 10.6028 15.2079 11.4317 15.17C12.1984 15.135 12.6142 15.0071 12.8915 14.8992C13.258 14.7563 13.5203 14.587 13.7954 14.3119C14.0562 14.0582 14.257 13.7488 14.3827 13.408C14.4906 13.1307 14.6185 12.7149 14.6535 11.9482C14.6914 11.1193 14.6993 10.8706 14.6993 8.772C14.6993 6.67338 14.6914 6.42472 14.6535 5.59585C14.6185 4.82914 14.4906 4.41328 14.3827 4.13603C14.2398 3.76947 14.0705 3.50723 13.7954 3.23213C13.5417 2.97137 13.2328 2.77069 12.8915 2.64478C12.6142 2.53688 12.1984 2.40898 11.4317 2.37396V2.37396ZM7.25157 11.195C7.81225 11.4284 8.43656 11.4599 9.01788 11.2841C9.5992 11.1084 10.1015 10.7362 10.4389 10.2313C10.7763 9.72633 10.9279 9.11989 10.8679 8.51556C10.8079 7.91122 10.5399 7.34647 10.1098 6.91776C9.83554 6.64371 9.50397 6.43388 9.13892 6.30335C8.77388 6.17283 8.38443 6.12487 7.99863 6.16292C7.61282 6.20098 7.24025 6.3241 6.90773 6.52342C6.57522 6.72275 6.29104 6.99332 6.07565 7.31565C5.86025 7.63799 5.71901 8.00407 5.66208 8.38755C5.60515 8.77103 5.63395 9.16235 5.74641 9.53336C5.85887 9.90437 6.05219 10.2458 6.31246 10.5332C6.57272 10.8205 6.89346 11.0465 7.25157 11.195ZM5.39875 5.91525C5.77391 5.5401 6.21928 5.24251 6.70944 5.03948C7.19961 4.83644 7.72496 4.73194 8.25551 4.73194C8.78606 4.73194 9.31141 4.83644 9.80157 5.03947C10.2917 5.24251 10.7371 5.5401 11.1123 5.91525C11.4874 6.2904 11.785 6.73578 11.988 7.22594C12.1911 7.7161 12.2956 8.24145 12.2956 8.772C12.2956 9.30255 12.1911 9.8279 11.988 10.3181C11.785 10.8082 11.4874 11.2536 11.1123 11.6288C10.3546 12.3864 9.327 12.8121 8.25551 12.8121C7.18402 12.8121 6.15641 12.3864 5.39875 11.6288C4.6411 10.8711 4.21545 9.84349 4.21545 8.772C4.21545 7.70051 4.6411 6.67291 5.39875 5.91525V5.91525ZM13.1916 5.33361C13.2846 5.24591 13.359 5.14045 13.4105 5.02348C13.4619 4.9065 13.4894 4.78039 13.4913 4.6526C13.4931 4.52481 13.4693 4.39795 13.4213 4.27952C13.3733 4.16109 13.3019 4.05351 13.2116 3.96314C13.1212 3.87277 13.0136 3.80145 12.8952 3.75341C12.7768 3.70536 12.6499 3.68156 12.5221 3.68343C12.3943 3.68529 12.2682 3.71277 12.1512 3.76425C12.0343 3.81573 11.9288 3.89015 11.8411 3.98312C11.6705 4.16392 11.5772 4.40407 11.5808 4.6526C11.5844 4.90112 11.6847 5.13845 11.8605 5.3142C12.0363 5.48996 12.2736 5.5903 12.5221 5.59392C12.7706 5.59754 13.0108 5.50416 13.1916 5.33361V5.33361Z" fill="#1A1B21"/>
</svg>
