<svg width="16" height="16" viewBox="0 0 16 16" fill="none" xmlns="http://www.w3.org/2000/svg">
<path fill-rule="evenodd" clip-rule="evenodd" d="M2.01532 4.23932C3.09756 4.23932 3.97491 3.43922 3.97491 2.45116C3.97491 1.46222 3.09756 0.661072 2.01532 0.661072C0.932038 0.661072 0.0546875 1.46222 0.0546875 2.45116C0.0546875 3.43922 0.932038 4.23932 2.01532 4.23932ZM0.502953 15.7428H4.01899V5.60223H0.502953V15.7428ZM10.8202 7.80155C9.50459 7.80155 8.95439 8.93876 8.95439 10.1017V15.6122H5.44411V5.47154H8.95439V6.83674C9.87802 5.64411 10.6806 5.15192 12.1358 5.15192C13.5921 5.15192 15.9596 5.84239 15.9596 9.84744V15.6122H12.4592V10.0739C12.4592 8.93876 12.1358 7.80155 10.8202 7.80155Z" fill="#1A1B21"/>
</svg>
