<svg width="30" height="30" viewBox="0 0 30 30" fill="none" xmlns="http://www.w3.org/2000/svg">
<path d="M4.99665 24.6853H9.37946V11.5179H4.99665V24.6853ZM9.66406 7.45759C9.64509 6.16741 8.7154 5.1808 7.21652 5.1808C5.71763 5.1808 4.73103 6.16741 4.73103 7.45759C4.73103 8.70982 5.67969 9.73438 7.1596 9.73438H7.17857C8.7154 9.73438 9.66406 8.70982 9.66406 7.45759ZM20.7634 24.6853H25.1462V17.1339C25.1462 13.0926 22.9833 11.2143 20.0993 11.2143C17.7467 11.2143 16.7031 12.5234 16.1339 13.4342H16.1719V11.5179H11.7891C11.7891 11.5179 11.846 12.7511 11.7891 24.6853H16.1719V17.3237C16.1719 16.9442 16.1908 16.5458 16.3047 16.2612C16.6272 15.4833 17.3482 14.6674 18.5625 14.6674C20.1373 14.6674 20.7634 15.8627 20.7634 17.6462V24.6853ZM29.6429 5.75V23.9643C29.6429 26.981 27.1953 29.4286 24.1786 29.4286H5.96429C2.94754 29.4286 0.5 26.981 0.5 23.9643V5.75C0.5 2.73326 2.94754 0.285713 5.96429 0.285713H24.1786C27.1953 0.285713 29.6429 2.73326 29.6429 5.75Z" fill="#F2F2F2"/>
</svg>
